<svg version="1.2" xmlns="http://www.w3.org/2000/svg" viewBox="0 0 48 48" width="48" height="48">
	<title>New Project</title>
	<style>
		.s0 { fill: #bababa } 
		.s1 { fill: #000000 } 
	</style>
	<path id="Shape 1" class="s0" d="m24 48c-13.3 0-24-10.7-24-24 0-13.3 10.7-24 24-24 13.3 0 24 10.7 24 24 0 13.3-10.7 24-24 24z"/>
	<path id="Shape 2" class="s1" d="m24 16c-2.8 0-5-2.2-5-5 0-2.8 2.2-5 5-5 2.8 0 5 2.2 5 5 0 2.8-2.2 5-5 5z"/>
	<path id="Shape 3" class="s1" d="m23.5 40c-4.1 0-7.5-5.6-7.5-12.5 0-6.9 3.4-12.5 7.5-12.5 4.1 0 7.5 5.6 7.5 12.5 0 6.9-3.4 12.5-7.5 12.5z"/>
</svg>